<?xml version="1.0" standalone="no"?>
<!DOCTYPE svg PUBLIC "-//W3C//DTD SVG 20010904//EN"
 "http://www.w3.org/TR/2001/REC-SVG-20010904/DTD/svg10.dtd">
<svg version="1.0" xmlns="http://www.w3.org/2000/svg"
 width="640.000000pt" height="640.000000pt" viewBox="0 0 640.000000 640.000000"
 preserveAspectRatio="xMidYMid meet">
<metadata>
Created by potrace 1.14, written by Peter Selinger 2001-2017
</metadata>
<g transform="translate(0.000000,640.000000) scale(0.100000,-0.100000)"
fill="#000000" stroke="none">
<path d="M2397 5184 c-56 -11 -115 -29 -132 -39 -67 -41 -110 -70 -113 -76 -2
-4 -24 -1 -50 7 -146 43 -310 78 -402 87 -96 9 -170 5 -325 -18 -49 -7 -188
-61 -251 -98 -60 -35 -63 -49 -40 -172 19 -103 78 -319 88 -323 4 -2 8 -8 8
-13 0 -4 11 -33 25 -63 14 -30 25 -57 25 -60 0 -2 10 -26 22 -53 12 -26 21
-51 20 -55 -1 -5 2 -8 6 -8 5 0 19 -24 33 -52 13 -29 33 -69 45 -88 11 -19 38
-69 59 -110 21 -41 49 -89 62 -106 13 -17 23 -36 23 -42 0 -6 16 -26 35 -43
39 -36 44 -59 18 -89 -20 -23 -109 -71 -166 -89 -40 -14 -70 -55 -67 -94 1
-12 2 -43 1 -68 l-1 -46 -42 7 c-24 4 -64 10 -89 13 -25 3 -91 13 -145 23
-140 24 -628 15 -782 -15 -142 -27 -196 -64 -185 -126 9 -50 32 -62 130 -65
48 -2 120 -4 158 -6 39 -1 142 -5 230 -8 141 -4 200 -11 444 -53 l35 -6 -45
-14 c-24 -7 -69 -17 -99 -23 -112 -19 -251 -68 -415 -144 -38 -18 -92 -41
-118 -51 -49 -19 -97 -67 -97 -98 0 -10 -4 -17 -9 -17 -16 0 1 -41 23 -55 11
-7 46 -19 77 -25 61 -14 183 0 359 41 47 10 121 23 165 29 44 6 95 15 113 21
18 6 36 8 39 5 4 -3 2 -6 -4 -6 -15 0 -217 -124 -280 -171 -29 -21 -57 -39
-63 -39 -5 0 -10 -4 -10 -8 0 -4 -12 -15 -27 -24 -70 -43 -120 -108 -127 -167
-2 -22 4 -32 31 -51 61 -42 183 -24 333 49 30 14 58 29 61 34 3 4 46 21 95 38
49 17 94 35 99 39 6 5 80 38 165 75 85 36 187 81 225 99 120 57 137 60 183 36
22 -11 48 -30 57 -40 10 -11 23 -20 28 -20 6 0 42 -20 81 -44 92 -57 213 -121
273 -144 26 -11 57 -22 68 -27 11 -4 25 -9 32 -10 28 -6 203 -70 249 -90 136
-61 258 -76 662 -82 287 -3 355 -2 412 11 38 9 79 16 90 16 20 0 19 -2 -9 -25
-44 -38 -166 -215 -147 -215 2 0 -9 -39 -25 -86 -16 -47 -29 -102 -29 -123 0
-34 -3 -38 -37 -50 -21 -8 -52 -25 -69 -37 -17 -13 -34 -24 -38 -24 -4 0 -16
-10 -27 -23 l-18 -22 9 33 c5 18 27 52 49 75 44 45 47 60 35 162 -8 69 -50 98
-144 101 -146 5 -235 -93 -190 -211 9 -25 7 -31 -26 -83 -1 -2 -20 16 -41 39
-34 36 -46 42 -89 46 -43 4 -53 1 -77 -22 l-28 -27 -25 23 c-19 17 -37 24 -70
24 l-45 0 1 40 c4 96 1 106 -39 146 -44 42 -88 55 -155 46 -65 -9 -96 -27
-117 -69 -20 -39 -26 -132 -10 -157 7 -10 2 -30 -15 -63 -13 -26 -24 -56 -24
-67 0 -10 -7 -32 -15 -47 -8 -16 -15 -37 -15 -47 0 -24 -30 -87 -41 -87 -4 0
-4 12 1 28 40 129 72 342 59 398 -4 16 -12 56 -19 89 -18 79 -33 109 -74 140
-28 21 -46 26 -88 26 -29 0 -64 -3 -78 -6 -14 -3 -40 -8 -58 -11 -19 -4 -49
-22 -68 -41 -19 -18 -34 -29 -34 -24 0 14 -85 71 -120 81 -47 14 -159 -25
-209 -71 -11 -11 -24 -19 -30 -19 -5 0 -11 -5 -13 -12 -3 -7 -11 2 -18 19 -8
17 -32 43 -55 58 -32 21 -49 26 -86 22 -55 -5 -177 -59 -202 -90 -62 -77 -98
-181 -83 -240 15 -62 115 -80 167 -31 29 28 36 24 33 -21 -2 -50 -33 -212 -48
-257 -8 -23 -13 -45 -11 -48 3 -4 0 -22 -5 -41 -6 -19 -13 -47 -16 -63 -2 -16
-9 -37 -14 -47 -26 -47 7 -134 60 -159 45 -21 126 -24 173 -6 48 18 65 48 78
141 4 28 14 73 23 100 8 28 25 84 36 125 22 78 41 123 85 200 18 32 25 39 26
25 1 -11 0 -24 -1 -30 -1 -5 -4 -28 -6 -49 -2 -22 -11 -59 -19 -83 -9 -25 -20
-76 -25 -115 -6 -38 -15 -90 -21 -115 -16 -60 -5 -140 22 -169 26 -28 113 -49
163 -40 20 4 36 10 36 15 0 4 9 17 20 29 27 29 47 86 55 158 9 88 14 115 26
159 6 22 16 63 21 90 14 63 54 169 83 218 l23 39 4 -31 c2 -17 -1 -47 -8 -68
-22 -66 -62 -226 -69 -277 -16 -104 -12 -166 11 -214 31 -63 42 -75 91 -101
47 -24 147 -29 201 -10 25 9 41 7 84 -8 56 -20 116 -22 158 -5 14 5 29 10 34
10 5 0 13 7 18 16 12 21 27 20 50 -1 24 -21 95 -25 129 -7 15 7 36 26 47 41
l20 28 18 -32 c22 -38 45 -50 114 -59 38 -5 55 -3 68 8 30 26 54 29 80 12 37
-24 207 -15 226 12 14 18 15 18 36 -1 30 -27 113 -26 206 3 l72 23 51 -32 c45
-28 56 -31 102 -26 28 4 56 10 63 15 6 5 25 14 43 21 31 12 34 12 57 -15 13
-16 54 -44 92 -63 56 -28 82 -35 153 -39 l86 -4 0 -127 c-1 -69 3 -136 8 -148
11 -26 73 -53 122 -53 24 0 43 8 63 28 l29 29 544 1 c299 0 551 1 559 1 34 2
50 54 50 158 l0 100 -41 41 -41 42 -153 0 c-127 0 -154 3 -159 15 -4 11 1 15
19 15 24 0 40 5 130 43 95 41 184 124 185 172 0 24 -29 59 -90 105 -25 19 -51
40 -58 47 -7 7 -18 13 -24 13 -6 0 -8 24 -5 64 4 60 3 67 -25 100 -44 54 -102
83 -180 91 -59 6 -73 4 -121 -18 -29 -15 -59 -33 -66 -41 -11 -13 -19 -10 -60
20 -54 38 -100 44 -168 20 l-40 -14 -6 87 c-7 104 -29 159 -95 232 -38 43
-113 101 -132 104 -3 0 -27 9 -53 19 -41 16 -66 18 -178 13 l-129 -6 -53 -37
c-28 -21 -54 -41 -57 -45 -10 -13 -49 -29 -53 -22 -2 5 -7 20 -11 35 -14 58
-101 132 -145 123 -12 -2 -19 0 -16 5 3 5 22 12 43 15 86 13 143 27 179 44 21
11 54 21 73 24 42 6 76 19 152 57 31 16 82 36 113 45 51 15 167 73 190 96 5 5
15 9 21 9 15 0 96 53 114 75 17 20 46 19 95 -5 22 -11 48 -19 58 -20 9 0 17
-4 17 -8 0 -4 19 -13 43 -19 23 -7 85 -31 137 -56 52 -24 126 -56 163 -72 37
-16 70 -32 73 -37 3 -4 13 -8 22 -8 9 0 69 -23 132 -51 63 -28 141 -59 174
-70 60 -20 161 -25 184 -10 21 13 27 85 10 110 -36 51 -296 242 -418 307 l-35
19 33 3 c18 2 56 -4 85 -12 30 -9 75 -18 101 -21 26 -3 57 -10 70 -15 12 -4
47 -11 77 -15 30 -4 56 -8 59 -10 14 -9 216 -17 265 -10 46 5 58 11 67 30 14
30 -7 115 -29 115 -7 0 -16 7 -19 15 -6 16 -179 103 -246 124 -21 7 -40 17
-43 22 -4 5 -16 9 -29 9 -12 0 -26 4 -31 9 -6 5 -57 21 -115 36 -105 27 -133
34 -245 58 l-60 13 125 17 c69 10 155 17 191 17 36 0 90 4 120 9 56 10 194 18
404 25 66 2 129 4 140 5 32 3 55 26 60 61 6 46 -27 75 -101 90 -32 7 -79 18
-104 26 -25 7 -93 23 -152 34 -97 20 -127 21 -305 15 -277 -9 -331 -11 -388
-19 -27 -3 -70 -8 -95 -11 -25 -3 -53 -8 -62 -11 -11 -3 -18 0 -18 8 0 19 -52
68 -72 68 -8 0 -21 7 -28 15 -7 8 -39 30 -71 47 -33 18 -59 35 -59 39 0 3 -9
16 -20 29 -24 28 -25 43 -5 64 8 8 15 21 15 30 0 8 6 21 14 29 8 8 22 41 31
73 10 32 30 81 47 107 16 27 31 62 35 78 3 16 10 26 16 22 5 -3 7 -1 3 5 -3 6
10 55 30 109 20 54 45 126 55 161 11 34 25 62 31 62 6 0 9 3 5 6 -3 4 3 24 13
45 11 21 20 48 20 59 0 12 6 33 14 48 14 28 63 248 71 318 5 45 8 113 6 131 0
7 -35 35 -77 62 -106 68 -215 93 -414 95 -174 1 -255 -6 -335 -29 -33 -9 -76
-21 -95 -26 -88 -21 -196 -53 -205 -60 -5 -4 -37 -15 -70 -24 -33 -10 -86 -30
-117 -45 -31 -15 -59 -25 -62 -22 -4 3 -6 1 -6 -5 0 -6 -15 -14 -32 -17 -18
-3 -46 -17 -62 -31 -16 -13 -37 -27 -47 -30 -38 -12 -295 71 -341 110 -13 11
-37 28 -53 39 -17 10 -40 29 -51 42 -29 32 -89 72 -120 80 -15 4 -31 1 -42 -8
-9 -9 -29 -18 -44 -22 -17 -4 -34 -18 -43 -36 -14 -27 -18 -29 -38 -17 -12 6
-24 15 -27 18 -3 3 -32 20 -65 38 -33 18 -64 36 -70 41 -5 4 -36 15 -69 24
-76 22 -230 18 -369 -10z m2248 -152 c-3 -3 -11 0 -18 7 -9 10 -8 11 6 5 10
-3 15 -9 12 -12z m121 -227 c-1 -8 -5 -17 -8 -21 -5 -4 -4 16 1 34 3 9 9 -1 7
-13z m-165 -12 c13 -16 12 -17 -3 -4 -17 13 -22 21 -14 21 2 0 10 -8 17 -17z
m-794 -38 c0 -8 -4 -12 -9 -9 -5 3 -6 10 -3 15 9 13 12 11 12 -6z m-37 -29 c0
-2 -7 -7 -16 -10 -8 -3 -12 -2 -9 4 6 10 25 14 25 6z m37 -81 c0 -8 -4 -12 -9
-9 -5 3 -6 10 -3 15 9 13 12 11 12 -6z m157 -171 c3 -8 2 -12 -4 -9 -6 3 -10
10 -10 16 0 14 7 11 14 -7z m376 -50 c0 -8 -19 -13 -24 -6 -3 5 1 9 9 9 8 0
15 -2 15 -3z m-645 -24 c-3 -5 -12 -10 -18 -10 -7 0 -6 4 3 10 19 12 23 12 15
0z m555 -24 c0 -2 -8 -10 -17 -17 -16 -13 -17 -12 -4 4 13 16 21 21 21 13z
m-883 -61 c0 -8 -4 -12 -9 -9 -5 3 -6 10 -3 15 9 13 12 11 12 -6z m1554 -42
c13 -16 12 -17 -3 -4 -17 13 -22 21 -14 21 2 0 10 -8 17 -17z m-267 -391 c2
-4 -4 -8 -14 -8 -10 0 -16 4 -14 8 3 4 9 8 14 8 5 0 11 -4 14 -8z m-484 -196
c0 -3 -4 -8 -10 -11 -5 -3 -10 -1 -10 4 0 6 5 11 10 11 6 0 10 -2 10 -4z
m-234 -128 c3 -4 -1 -5 -10 -4 -8 1 -18 5 -22 8 -3 4 1 5 10 4 8 -1 18 -5 22
-8z m461 -1504 c29 -28 43 -88 41 -172 -2 -87 -16 -162 -30 -162 -4 0 -8 -9
-8 -20 0 -19 -18 -59 -31 -70 -4 -3 -10 -15 -14 -28 -4 -15 -12 -21 -21 -18
-8 3 -12 2 -9 -4 6 -10 -15 -50 -27 -50 -8 0 -36 -21 -64 -48 -8 -8 -32 -12
-61 -10 -45 3 -49 6 -77 52 -48 76 -45 184 9 348 22 64 56 117 93 145 62 45
169 66 199 37z m677 -730 c20 -14 20 -14 -7 -14 -20 0 -30 -7 -37 -25 -10 -25
-11 -26 -110 -23 -55 2 -101 7 -103 12 -1 5 27 17 63 25 36 9 79 24 95 33 32
19 65 16 99 -8z m-486 0 c20 -9 53 -19 72 -23 22 -4 36 -13 38 -24 3 -15 -9
-17 -127 -17 -72 0 -131 2 -131 4 0 6 93 76 102 76 5 0 25 -7 46 -16z"/>
<path d="M4195 1600 c3 -5 8 -10 11 -10 2 0 4 5 4 10 0 6 -5 10 -11 10 -5 0
-7 -4 -4 -10z"/>
</g>
</svg>
